<svg width="402" height="402" viewBox="0 0 402 402" fill="none" xmlns="http://www.w3.org/2000/svg">
<g opacity="0.15">
<path fill-rule="evenodd" clip-rule="evenodd" d="M300.472 54.075C283.681 34.9453 253.348 26.75 214.539 26.75H101.88C93.9499 26.75 87.1974 32.5199 85.9606 40.3534L39.0511 337.794C38.1245 343.664 42.6618 348.969 48.6021 348.969H118.15L113.351 379.405C112.542 384.54 116.508 389.184 121.706 389.184H180.326C187.267 389.184 193.174 384.134 194.256 377.283L194.831 374.304L205.874 304.282L206.587 300.413C207.668 293.558 213.575 288.512 220.512 288.512H229.281C286.073 288.512 330.543 265.439 343.534 198.718C348.965 170.839 346.159 147.568 331.802 131.207C327.456 126.26 322.055 122.166 315.753 118.829C320.176 90.6363 315.723 71.4512 300.472 54.075Z" fill="white"/>
<path fill-rule="evenodd" clip-rule="evenodd" d="M315.753 118.837C320.176 90.6423 315.723 71.4554 300.472 54.0776C283.681 34.9461 253.348 26.75 214.539 26.75H101.88C93.9499 26.75 87.1974 32.5205 85.9606 40.3547L39.0511 337.823C38.1245 343.694 42.6618 348.999 48.6021 348.999H118.15L135.621 238.219L135.078 241.693C136.315 233.859 143.012 228.085 150.942 228.085H183.999C248.918 228.085 299.748 201.71 314.601 125.435C315.04 123.179 315.417 120.99 315.753 118.837Z" fill="white"/>
<path fill-rule="evenodd" clip-rule="evenodd" d="M154.387 119.214C155.132 114.499 158.156 110.641 162.228 108.688C164.082 107.802 166.149 107.308 168.316 107.308H256.623C267.086 107.308 276.84 107.994 285.756 109.43C288.307 109.84 290.784 110.313 293.195 110.848C295.602 111.38 297.943 111.978 300.206 112.642C301.34 112.971 302.451 113.318 303.547 113.684C307.926 115.134 312.002 116.851 315.753 118.837C320.176 90.6423 315.723 71.4554 300.472 54.0776C283.681 34.9461 253.348 26.75 214.539 26.75H101.88C93.9499 26.75 87.1974 32.5205 85.9606 40.3547L39.0511 337.823C38.1245 343.694 42.6618 348.999 48.6021 348.999H118.15L154.387 119.214Z" fill="white"/>
</g>
</svg>
